PERFORMER "John Askew"
TITLE "Essential Mix (2007-02-11)"
FILE "2007.02.11 - EM - John Askew.mp3" MP3
  TRACK 01 AUDIO
    PERFORMER "Trentemøller"
    TITLE "Gamma"
    INDEX 01 00:00:00
  TRACK 02 AUDIO
    PERFORMER "Johan Gielen"
    TITLE "Kuredu Express"
    INDEX 01 04:31:28
  TRACK 03 AUDIO
    PERFORMER "Space Manoeuvres"
    TITLE "Zone Two (Koala Remix)"
    INDEX 01 10:21:21
  TRACK 04 AUDIO
    PERFORMER "Alex Bartlett"
    TITLE "Amnesia (Martin Roth Instrumental Mix)"
    INDEX 01 14:13:47
  TRACK 05 AUDIO
    PERFORMER "Yamin"
    TITLE "So Tired (Gate 42 Remix)"
    INDEX 01 17:35:48
  TRACK 06 AUDIO
    PERFORMER "John O'Callaghan"
    TITLE "Low Resolution Fox (John Askew Remix)"
    INDEX 01 18:31:20
  TRACK 07 AUDIO
    PERFORMER "Serge Devant vs. Filo & Peri"
    TITLE "Triple Crown"
    INDEX 01 24:19:01
  TRACK 08 AUDIO
    PERFORMER "Duderstadt feat. Anita Kelsey"
    TITLE "Smile (Duende Dub Mix) (Re-Edit)"
    INDEX 01 30:06:27
  TRACK 09 AUDIO
    PERFORMER "John O'Callaghan"
    TITLE "Space & Time (Marc van Linden Mix)"
    INDEX 01 34:44:00
  TRACK 10 AUDIO
    PERFORMER "Thomas Datt"
    TITLE "Distance"
    INDEX 01 38:39:50
  TRACK 11 AUDIO
    PERFORMER "Stoneface & Terminal vs. Def Tactical"
    TITLE "Driven By Venus (Askew Mashup)"
    INDEX 01 44:25:58
  TRACK 12 AUDIO
    PERFORMER "Stoneface & Terminal"
    TITLE "Volcano"
    INDEX 01 49:16:29
  TRACK 13 AUDIO
    PERFORMER "Motivation"
    TITLE "Para Mi (Veceroy Remix) (Re-Edit)"
    INDEX 01 54:01:64
  TRACK 14 AUDIO
    PERFORMER "Forerunners"
    TITLE "Lifecycle"
    INDEX 01 57:15:66
  TRACK 15 AUDIO
    PERFORMER "Tantra"
    TITLE "Blitz (Marcos Remix)"
    INDEX 01 65:32:32
  TRACK 16 AUDIO
    PERFORMER "Woody van Eyden feat. Jimmy H"
    TITLE "Y68 (Giuseppe Ottaviani Remix) (Askew Edit)"
    INDEX 01 67:57:38
  TRACK 17 AUDIO
    PERFORMER "Amadeus vs. Aly & Fila"
    TITLE "A Dream Of Peace (John Askew Remix)"
    INDEX 01 71:24:12
  TRACK 18 AUDIO
    PERFORMER "Battery Acid"
    TITLE "Battery Acid (John Askew's Dark Room Mix)"
    INDEX 01 76:13:05
  TRACK 19 AUDIO
    PERFORMER "Activa"
    TITLE "Genetic (Airflow Mix)"
    INDEX 01 79:53:00
  TRACK 20 AUDIO
    PERFORMER "Aly & Fila pres. A&F Project"
    TITLE "Ankh (Breath Of Life)"
    INDEX 01 85:22:38
  TRACK 21 AUDIO
    PERFORMER "Neal Scarborough"
    TITLE "Stung By The River (Sean Tyas Remix)"
    INDEX 01 91:24:44
  TRACK 22 AUDIO
    PERFORMER "Bryan Kearney"
    TITLE "More To Life"
    INDEX 01 97:21:39
  TRACK 23 AUDIO
    PERFORMER "Steve Birch"
    TITLE "Full Throttle (Digital Nature Remix)"
    INDEX 01 102:37:22
  TRACK 24 AUDIO
    PERFORMER "Tom Colontonio"
    TITLE "Suspect (Askew Edit)"
    INDEX 01 107:25:44
  TRACK 25 AUDIO
    PERFORMER "Thomas Bronzwaer"
    TITLE "Constellation (John O'Callaghan Remix)"
    INDEX 01 111:59:72
  TRACK 26 AUDIO
    PERFORMER "Cedric Gervais"
    TITLE "Spirit In My Life (Second Sun Remix)"
    INDEX 01 116:48:04